<svg width="204" height="200" viewBox="0 0 204 200" fill="none" xmlns="http://www.w3.org/2000/svg">
<g clip-path="url(#clip0_0_3)">
<path d="M100 16.6667C52.3333 16.6667 13.3333 54.1667 13.3333 100C13.3333 145.833 52.3333 183.333 100 183.333C147.667 183.333 186.667 145.833 186.667 100C186.667 54.1667 147.667 16.6667 100 16.6667ZM100 166.667C61.8667 166.667 30.6667 136.667 30.6667 100C30.6667 63.3333 61.8667 33.3333 100 33.3333C138.133 33.3333 169.333 63.3333 169.333 100C169.333 136.667 138.133 166.667 100 166.667Z" fill="white"/>
<path d="M114.733 69.1667C111.267 65.8333 106.067 65.8333 102.6 69.1667L76.6 94.1667C73.1333 97.5 73.1333 102.5 76.6 105.833L102.6 130.833C104.333 132.5 106.933 133.333 108.667 133.333C110.4 133.333 113 132.5 114.733 130.833C118.2 127.5 118.2 122.5 114.733 119.167L94.8 100L114.733 80.8333C118.2 77.5 118.2 72.5 114.733 69.1667Z" fill="white"/>
</g>
<defs>
<clipPath id="clip0_0_3">
<rect width="204" height="200" fill="white"/>
</clipPath>
</defs>
</svg>
