<svg width="204" height="200" viewBox="0 0 204 200" fill="none" xmlns="http://www.w3.org/2000/svg">
<g clip-path="url(#clip0_0_3)">
<path d="M104 183.333C151.667 183.333 190.667 145.833 190.667 100C190.667 54.1667 151.667 16.6667 104 16.6667C56.3333 16.6667 17.3333 54.1667 17.3333 100C17.3333 145.833 56.3333 183.333 104 183.333ZM104 33.3333C142.133 33.3333 173.333 63.3333 173.333 100C173.333 136.667 142.133 166.667 104 166.667C65.8667 166.667 34.6667 136.667 34.6667 100C34.6667 63.3333 65.8667 33.3333 104 33.3333Z" fill="white"/>
<path d="M89.2667 130.833C92.7333 134.167 97.9333 134.167 101.4 130.833L127.4 105.833C130.867 102.5 130.867 97.5 127.4 94.1667L101.4 69.1667C99.6667 67.5 97.0667 66.6667 95.3333 66.6667C93.6 66.6667 91 67.5 89.2667 69.1667C85.8 72.5 85.8 77.5 89.2667 80.8333L109.2 100L89.2667 119.167C85.8 122.5 85.8 127.5 89.2667 130.833Z" fill="white"/>
</g>
<defs>
<clipPath id="clip0_0_3">
<rect width="204" height="200" fill="white" transform="matrix(-1 0 0 -1 204 200)"/>
</clipPath>
</defs>
</svg>
